# Blender 4.0.2
# www.blender.org
mtllib token cup.mtl
o token_cup
v 98.113998 1.463906 216.190002
v 97.933601 0.117274 216.371002
v 98.241898 1.463906 216.345993
v 98.029800 0.117274 216.488007
v 98.336899 1.463906 216.524002
v 98.101303 0.117274 216.621994
v 98.395500 1.463906 216.716995
v 98.145302 0.117274 216.766998
v 98.415199 1.463906 216.917999
v 98.160103 0.117274 216.917999
v 98.395500 1.463906 217.117996
v 98.145302 0.117274 217.069000
v 98.336899 1.463906 217.311005
v 98.101303 0.117274 217.214005
v 98.241898 1.463906 217.488998
v 98.029800 0.117274 217.347000
v 98.113998 1.463906 217.645004
v 97.933601 0.117274 217.464996
v 98.145302 0.000020 217.069000
v 98.160103 0.000020 216.917999
v 97.933601 0.000020 216.371002
v 98.029800 0.000020 216.488007
v 98.101303 0.000020 216.621994
v 98.145302 0.000020 216.766998
v 98.101303 0.000020 217.214005
v 98.029800 0.000020 217.347000
v 97.933601 0.000020 217.464996
v 96.725403 1.463906 217.578995
v 96.609100 1.463906 217.436996
v 96.522598 1.463906 217.276001
v 96.469398 1.463906 217.100006
v 96.451401 1.463906 216.917999
v 96.469398 1.463906 216.735001
v 96.522598 1.463906 216.559998
v 96.609100 1.463906 216.397995
v 96.725403 1.463906 216.255997
v 96.918404 0.024660 217.386002
v 96.835999 0.024660 217.285995
v 96.774803 0.024660 217.171005
v 96.737099 0.024660 217.046997
v 96.724403 0.024660 216.917999
v 96.737099 0.024660 216.787994
v 96.774803 0.024660 216.664001
v 96.835999 0.024660 216.550003
v 96.918404 0.024660 216.449005
v 98.113998 1.463906 217.645004
v 97.958199 1.463906 217.772995
v 96.531700 1.463906 217.488998
v 96.436699 1.463906 217.311005
v 96.993202 1.463906 215.968002
v 97.186203 1.463906 215.908997
v 98.415199 1.463906 216.917999
v 98.395500 1.463906 217.117996
v 97.186203 1.463906 217.925995
v 96.993202 1.463906 217.867996
v 96.436699 1.463906 216.524002
v 96.531700 1.463906 216.345993
v 98.113998 1.463906 216.190002
v 98.241898 1.463906 216.345993
v 97.780403 1.463906 217.867996
v 96.378098 1.463906 217.117996
v 97.386803 1.463906 215.889008
v 97.587402 1.463906 215.908997
v 98.336899 1.463906 217.311005
v 96.815399 1.463906 217.772995
v 96.659599 1.463906 216.190002
v 98.336899 1.463906 216.524002
v 97.587402 1.463906 217.925995
v 96.358398 1.463906 216.917999
v 97.780403 1.463906 215.968002
v 98.241898 1.463906 217.488998
v 96.659599 1.463906 217.645004
v 96.815399 1.463906 216.063004
v 98.395500 1.463906 216.716995
v 97.386803 1.463906 217.945999
v 96.378098 1.463906 216.716995
v 97.958199 1.463906 216.063004
v 97.569298 1.463906 217.835007
v 97.386803 1.463906 217.852997
v 97.744797 1.463906 216.054001
v 97.906502 1.463906 216.139999
v 96.867104 1.463906 216.139999
v 97.028801 1.463906 216.054001
v 97.204300 1.463906 217.835007
v 98.048203 1.463906 216.255997
v 97.204300 1.463906 216.000000
v 97.028801 1.463906 217.781998
v 98.164497 1.463906 216.397995
v 97.386803 1.463906 215.981995
v 96.867104 1.463906 217.695007
v 98.250999 1.463906 216.559998
v 96.725403 1.463906 217.578995
v 98.304199 1.463906 216.735001
v 96.609100 1.463906 217.436996
v 98.322197 1.463906 216.917999
v 96.522598 1.463906 217.276001
v 98.304199 1.463906 217.100006
v 96.469398 1.463906 217.100006
v 98.250999 1.463906 217.276001
v 96.451401 1.463906 216.917999
v 98.164497 1.463906 217.436996
v 96.469398 1.463906 216.735001
v 98.048203 1.463906 217.578995
v 96.522598 1.463906 216.559998
v 97.906502 1.463906 217.695007
v 96.609100 1.463906 216.397995
v 97.744797 1.463906 217.781998
v 97.569298 1.463906 216.000000
v 96.725403 1.463906 216.255997
v 96.911102 0.023971 216.442001
v 97.013100 0.023971 216.358002
v 97.517998 0.023971 217.576996
v 97.386803 0.023971 217.589996
v 97.644203 0.023971 216.296005
v 97.760498 0.023971 216.358002
v 97.129402 0.023971 216.296005
v 97.255600 0.023971 217.576996
v 97.862503 0.023971 216.442001
v 97.255600 0.023971 216.257996
v 97.129402 0.023971 217.539001
v 97.946098 0.023971 216.544006
v 97.386803 0.023971 216.244995
v 97.013100 0.023971 217.477005
v 98.008301 0.023971 216.660004
v 96.911102 0.023971 217.393005
v 98.046600 0.023971 216.785995
v 96.827499 0.023971 217.291000
v 98.059502 0.023971 216.917999
v 96.765297 0.023971 217.175003
v 98.046600 0.023971 217.048996
v 96.726997 0.023971 217.048996
v 98.008301 0.023971 217.175003
v 96.714104 0.023971 216.917999
v 97.946098 0.023971 217.291000
v 96.726997 0.023971 216.785995
v 97.862503 0.023971 217.393005
v 96.765297 0.023971 216.660004
v 97.760498 0.023971 217.477005
v 96.827499 0.023971 216.544006
v 97.644203 0.023971 217.539001
v 97.517998 0.023971 216.257996
v 97.386803 1.463906 215.889008
v 97.587402 1.463906 215.908997
v 97.780403 1.463906 215.968002
v 97.958199 1.463906 216.063004
v 98.113998 1.463906 216.190002
v 98.241898 1.463906 216.345993
v 98.336899 1.463906 216.524002
v 98.395500 1.463906 216.716995
v 98.415199 1.463906 216.917999
v 98.395500 1.463906 217.117996
v 98.336899 1.463906 217.311005
v 98.241898 1.463906 217.488998
v 98.113998 1.463906 217.645004
v 97.933601 0.117274 217.464996
v 97.958199 1.463906 217.772995
v 97.816399 0.117274 217.561005
v 97.780403 1.463906 217.867996
v 97.682701 0.117274 217.632004
v 97.587402 1.463906 217.925995
v 97.537697 0.117274 217.675995
v 97.386803 1.463906 217.945999
v 97.386803 0.117274 217.690994
v 97.186203 1.463906 217.925995
v 97.235901 0.117274 217.675995
v 96.993202 1.463906 217.867996
v 97.090897 0.117274 217.632004
v 96.815399 1.463906 217.772995
v 96.957199 0.117274 217.561005
v 96.659599 1.463906 217.645004
v 96.839996 0.117274 217.464996
v 96.531700 1.463906 217.488998
v 96.436699 1.463906 217.311005
v 96.378098 1.463906 217.117996
v 96.358398 1.463906 216.917999
v 96.378098 1.463906 216.716995
v 96.436699 1.463906 216.524002
v 96.531700 1.463906 216.345993
v 96.659599 1.463906 216.190002
v 96.815399 1.463906 216.063004
v 96.993202 1.463906 215.968002
v 98.113998 1.463906 217.645004
v 97.958199 1.463906 217.772995
v 97.186203 1.463906 215.908997
v 97.933601 0.000020 217.464996
v 97.816399 0.000020 217.561005
v 97.682701 0.000020 217.632004
v 97.537697 0.000020 217.675995
v 97.386803 0.000020 217.690994
v 97.235901 0.000020 217.675995
v 97.090897 0.000020 217.632004
v 96.957199 0.000020 217.561005
v 96.839996 0.000020 217.464996
v 96.531700 1.463906 217.488998
v 96.436699 1.463906 217.311005
v 96.993202 1.463906 215.968002
v 97.186203 1.463906 215.908997
v 98.415199 1.463906 216.917999
v 98.395500 1.463906 217.117996
v 97.186203 1.463906 217.925995
v 96.993202 1.463906 217.867996
v 96.436699 1.463906 216.524002
v 96.531700 1.463906 216.345993
v 98.113998 1.463906 216.190002
v 98.241898 1.463906 216.345993
v 97.780403 1.463906 217.867996
v 96.378098 1.463906 217.117996
v 97.386803 1.463906 215.889008
v 97.587402 1.463906 215.908997
v 98.336899 1.463906 217.311005
v 96.815399 1.463906 217.772995
v 96.659599 1.463906 216.190002
v 98.336899 1.463906 216.524002
v 97.587402 1.463906 217.925995
v 96.358398 1.463906 216.917999
v 97.780403 1.463906 215.968002
v 98.241898 1.463906 217.488998
v 96.659599 1.463906 217.645004
v 96.815399 1.463906 216.063004
v 98.395500 1.463906 216.716995
v 97.386803 1.463906 217.945999
v 96.378098 1.463906 216.716995
v 97.958199 1.463906 216.063004
v 97.744797 1.463906 216.054001
v 97.906502 1.463906 216.139999
v 96.867104 1.463906 216.139999
v 97.028801 1.463906 216.054001
v 98.048203 1.463906 216.255997
v 97.204300 1.463906 216.000000
v 97.386803 1.463906 215.981995
v 97.569298 1.463906 216.000000
v 96.725403 1.463906 216.255997
v 97.386803 0.024660 216.255005
v 97.515999 0.024660 216.268005
v 96.918404 0.024660 216.449005
v 97.640297 0.024660 216.306000
v 97.018799 0.024660 216.367004
v 97.754799 0.024660 216.367004
v 97.133301 0.024660 216.306000
v 97.855202 0.024660 216.449005
v 97.257599 0.024660 216.268005
v 96.659599 1.463906 217.645004
v 96.839996 0.117274 217.464996
v 96.531700 1.463906 217.488998
v 96.743797 0.117274 217.347000
v 96.436699 1.463906 217.311005
v 96.672302 0.117274 217.214005
v 96.378098 1.463906 217.117996
v 96.628304 0.117274 217.069000
v 96.358398 1.463906 216.917999
v 96.613503 0.117274 216.917999
v 96.378098 1.463906 216.716995
v 96.628304 0.117274 216.766998
v 96.436699 1.463906 216.524002
v 96.672302 0.117274 216.621994
v 96.531700 1.463906 216.345993
v 96.743797 0.117274 216.488007
v 96.659599 1.463906 216.190002
v 96.839996 0.117274 216.371002
v 96.839996 0.000020 217.464996
v 96.743797 0.000020 217.347000
v 96.672302 0.000020 217.214005
v 96.628304 0.000020 217.069000
v 96.613503 0.000020 216.917999
v 96.628304 0.000020 216.766998
v 96.672302 0.000020 216.621994
v 96.743797 0.000020 216.488007
v 96.839996 0.000020 216.371002
v 98.048203 1.463906 216.255997
v 98.164497 1.463906 216.397995
v 98.250999 1.463906 216.559998
v 98.304199 1.463906 216.735001
v 98.322197 1.463906 216.917999
v 98.304199 1.463906 217.100006
v 98.250999 1.463906 217.276001
v 98.164497 1.463906 217.436996
v 98.048203 1.463906 217.578995
v 97.937599 0.024660 216.550003
v 97.998802 0.024660 216.664001
v 98.036499 0.024660 216.787994
v 98.049202 0.024660 216.917999
v 98.036499 0.024660 217.046997
v 97.998802 0.024660 217.171005
v 97.937599 0.024660 217.285995
v 97.855202 0.024660 217.386002
v 97.855202 0.024660 216.449005
v 98.145302 0.000020 217.069000
v 98.160103 0.000020 216.917999
v 97.386803 0.000020 216.143997
v 97.537697 0.000020 216.158997
v 97.682701 0.000020 216.203003
v 97.816399 0.000020 216.274994
v 97.933601 0.000020 216.371002
v 98.029800 0.000020 216.488007
v 98.101303 0.000020 216.621994
v 98.145302 0.000020 216.766998
v 98.101303 0.000020 217.214005
v 98.029800 0.000020 217.347000
v 97.933601 0.000020 217.464996
v 97.816399 0.000020 217.561005
v 97.682701 0.000020 217.632004
v 97.537697 0.000020 217.675995
v 97.386803 0.000020 217.690994
v 97.235901 0.000020 217.675995
v 97.090897 0.000020 217.632004
v 96.957199 0.000020 217.561005
v 96.839996 0.000020 217.464996
v 96.743797 0.000020 217.347000
v 96.672302 0.000020 217.214005
v 96.628304 0.000020 217.069000
v 96.613503 0.000020 216.917999
v 96.628304 0.000020 216.766998
v 96.672302 0.000020 216.621994
v 96.743797 0.000020 216.488007
v 96.839996 0.000020 216.371002
v 96.957199 0.000020 216.274994
v 97.090897 0.000020 216.203003
v 97.235901 0.000020 216.158997
v 97.133301 0.024660 217.529999
v 97.018799 0.024660 217.468002
v 97.937599 0.024660 216.550003
v 97.998802 0.024660 216.664001
v 96.918404 0.024660 217.386002
v 98.036499 0.024660 216.787994
v 96.835999 0.024660 217.285995
v 98.049202 0.024660 216.917999
v 96.774803 0.024660 217.171005
v 98.036499 0.024660 217.046997
v 96.737099 0.024660 217.046997
v 97.998802 0.024660 217.171005
v 96.724403 0.024660 216.917999
v 97.937599 0.024660 217.285995
v 96.737099 0.024660 216.787994
v 97.855202 0.024660 217.386002
v 96.774803 0.024660 216.664001
v 97.754799 0.024660 217.468002
v 96.835999 0.024660 216.550003
v 97.640297 0.024660 217.529999
v 97.386803 0.024660 216.255005
v 97.515999 0.024660 216.268005
v 96.918404 0.024660 216.449005
v 97.515999 0.024660 217.567001
v 97.640297 0.024660 216.306000
v 97.018799 0.024660 216.367004
v 97.386803 0.024660 217.580002
v 97.754799 0.024660 216.367004
v 97.133301 0.024660 216.306000
v 97.257599 0.024660 217.567001
v 97.855202 0.024660 216.449005
v 97.257599 0.024660 216.268005
v 96.911102 0.023971 216.442001
v 97.013100 0.023971 216.358002
v 97.517998 0.023971 217.576996
v 97.386803 0.023971 217.589996
v 97.644203 0.023971 216.296005
v 97.760498 0.023971 216.358002
v 97.129402 0.023971 216.296005
v 97.255600 0.023971 217.576996
v 97.862503 0.023971 216.442001
v 97.255600 0.023971 216.257996
v 97.129402 0.023971 217.539001
v 97.946098 0.023971 216.544006
v 97.386803 0.023971 216.244995
v 97.013100 0.023971 217.477005
v 98.008301 0.023971 216.660004
v 96.911102 0.023971 217.393005
v 98.046600 0.023971 216.785995
v 96.827499 0.023971 217.291000
v 98.059502 0.023971 216.917999
v 96.765297 0.023971 217.175003
v 98.046600 0.023971 217.048996
v 96.726997 0.023971 217.048996
v 98.008301 0.023971 217.175003
v 96.714104 0.023971 216.917999
v 97.946098 0.023971 217.291000
v 96.726997 0.023971 216.785995
v 97.862503 0.023971 217.393005
v 96.765297 0.023971 216.660004
v 97.760498 0.023971 217.477005
v 96.827499 0.023971 216.544006
v 97.644203 0.023971 217.539001
v 97.517998 0.023971 216.257996
v 97.386803 0.117274 216.143997
v 97.386803 1.463906 215.889008
v 97.587402 1.463906 215.908997
v 97.537697 0.117274 216.158997
v 97.780403 1.463906 215.968002
v 97.682701 0.117274 216.203003
v 97.958199 1.463906 216.063004
v 97.816399 0.117274 216.274994
v 98.113998 1.463906 216.190002
v 97.933601 0.117274 216.371002
v 96.659599 1.463906 216.190002
v 96.839996 0.117274 216.371002
v 96.815399 1.463906 216.063004
v 96.957199 0.117274 216.274994
v 96.993202 1.463906 215.968002
v 97.090897 0.117274 216.203003
v 97.186203 1.463906 215.908997
v 97.235901 0.117274 216.158997
v 97.386803 0.000020 216.143997
v 97.537697 0.000020 216.158997
v 97.682701 0.000020 216.203003
v 97.816399 0.000020 216.274994
v 97.933601 0.000020 216.371002
v 96.839996 0.000020 216.371002
v 96.957199 0.000020 216.274994
v 97.090897 0.000020 216.203003
v 97.235901 0.000020 216.158997
v 97.569298 1.463906 217.835007
v 97.386803 1.463906 217.852997
v 97.204300 1.463906 217.835007
v 97.028801 1.463906 217.781998
v 96.867104 1.463906 217.695007
v 96.725403 1.463906 217.578995
v 98.048203 1.463906 217.578995
v 97.906502 1.463906 217.695007
v 97.744797 1.463906 217.781998
v 97.133301 0.024660 217.529999
v 97.018799 0.024660 217.468002
v 96.918404 0.024660 217.386002
v 97.855202 0.024660 217.386002
v 97.754799 0.024660 217.468002
v 97.640297 0.024660 217.529999
v 97.515999 0.024660 217.567001
v 97.386803 0.024660 217.580002
v 97.257599 0.024660 217.567001
v 98.121902 1.480606 216.182999
v 97.947601 0.115384 216.356995
v 98.250999 1.480606 216.339996
v 98.046303 0.115384 216.477005
v 98.347198 1.480606 216.520004
v 98.119698 0.115384 216.613998
v 98.406303 1.480606 216.714996
v 98.164803 0.115384 216.763000
v 98.426201 1.480606 216.917999
v 98.180000 0.115384 216.917999
v 98.406303 1.480606 217.121002
v 98.164803 0.115384 217.072006
v 98.347198 1.480606 217.315994
v 98.119698 0.115384 217.220993
v 98.250999 1.480606 217.494995
v 98.046303 0.115384 217.358002
v 98.121902 1.480606 217.653000
v 97.947601 0.115384 217.479004
v 98.155800 -0.016830 217.070999
v 98.170799 -0.016830 216.917999
v 97.941200 -0.016831 216.363007
v 98.038803 -0.016831 216.481995
v 98.111198 -0.016831 216.617996
v 98.155800 -0.016831 216.764999
v 98.111198 -0.016830 217.218002
v 98.038803 -0.016830 217.352997
v 97.941200 -0.016830 217.472000
v 96.731697 1.481866 217.572998
v 96.616501 1.481866 217.432007
v 96.530998 1.481866 217.272003
v 96.478203 1.481866 217.098007
v 96.460403 1.481866 216.917999
v 96.478203 1.481866 216.737000
v 96.530998 1.481866 216.563004
v 96.616501 1.481866 216.403000
v 96.731697 1.481866 216.263000
v 96.926598 0.008282 217.378006
v 96.845596 0.008282 217.279007
v 96.785500 0.008282 217.167007
v 96.748497 0.008282 217.044998
v 96.735901 0.008282 216.917999
v 96.748497 0.008282 216.791000
v 96.785500 0.008282 216.669006
v 96.845596 0.008282 216.556000
v 96.926598 0.008282 216.457001
v 96.651703 1.480606 217.653000
v 96.825996 0.115384 217.479004
v 96.522598 1.480606 217.494995
v 96.727303 0.115384 217.358002
v 96.426399 1.480606 217.315994
v 96.653900 0.115384 217.220993
v 96.367302 1.480606 217.121002
v 96.608803 0.115384 217.072006
v 96.347397 1.480606 216.917999
v 96.593597 0.115384 216.917999
v 96.367302 1.480606 216.714996
v 96.608803 0.115384 216.763000
v 96.426399 1.480606 216.520004
v 96.653900 0.115384 216.613998
v 96.522598 1.480606 216.339996
v 96.727303 0.115384 216.477005
v 96.651703 1.480606 216.182999
v 96.825996 0.115384 216.356995
v 96.832397 -0.016830 217.472000
v 96.734802 -0.016830 217.352997
v 96.662399 -0.016830 217.218002
v 96.617798 -0.016830 217.070999
v 96.602798 -0.016830 216.917999
v 96.617798 -0.016831 216.764999
v 96.662399 -0.016831 216.617996
v 96.734802 -0.016831 216.481995
v 96.832397 -0.016831 216.363007
v 98.041901 1.481866 216.263000
v 98.157097 1.481866 216.403000
v 98.242599 1.481866 216.563004
v 98.295403 1.481866 216.737000
v 98.313202 1.481866 216.917999
v 98.295403 1.481866 217.098007
v 98.242599 1.481866 217.272003
v 98.157097 1.481866 217.432007
v 98.041901 1.481866 217.572998
v 97.928001 0.008282 216.556000
v 97.988098 0.008282 216.669006
v 98.025200 0.008282 216.791000
v 98.037697 0.008282 216.917999
v 98.025200 0.008282 217.044998
v 97.988098 0.008282 217.167007
v 97.928001 0.008282 217.279007
v 97.847000 0.008282 217.378006
v 97.847000 0.008282 216.457001
v 97.386803 0.115384 216.125000
v 97.386803 1.480606 215.878006
v 97.589600 1.480606 215.897995
v 97.541603 0.115384 216.139999
v 97.784599 1.480606 215.957001
v 97.690300 0.115384 216.184998
v 97.964302 1.480606 216.052994
v 97.827499 0.115384 216.257996
v 98.121902 1.480606 216.182999
v 97.947601 0.115384 216.356995
v 96.651703 1.480606 216.182999
v 96.825996 0.115384 216.356995
v 96.809303 1.480606 216.052994
v 96.946098 0.115384 216.257996
v 96.988998 1.480606 215.957001
v 97.083298 0.115384 216.184998
v 97.183998 1.480606 215.897995
v 97.232002 0.115384 216.139999
v 97.386803 -0.016831 216.134003
v 97.539703 -0.016831 216.149002
v 97.686798 -0.016831 216.192993
v 97.822403 -0.016831 216.266006
v 97.941200 -0.016831 216.363007
v 96.832397 -0.016831 216.363007
v 96.951202 -0.016831 216.266006
v 97.086800 -0.016831 216.192993
v 97.233902 -0.016831 216.149002
v 97.567596 1.481866 217.826004
v 97.386803 1.481866 217.843994
v 97.206001 1.481866 217.826004
v 97.032303 1.481866 217.774002
v 96.872200 1.481866 217.688004
v 96.731697 1.481866 217.572998
v 98.041901 1.481866 217.572998
v 97.901398 1.481866 217.688004
v 97.741302 1.481866 217.774002
v 97.137703 0.008282 217.518997
v 97.025200 0.008282 217.459000
v 96.926598 0.008282 217.378006
v 97.847000 0.008282 217.378006
v 97.748398 0.008282 217.459000
v 97.635902 0.008282 217.518997
v 97.513802 0.008282 217.556000
v 97.386803 0.008282 217.569000
v 97.259804 0.008282 217.556000
v 97.386803 1.480606 215.878006
v 97.589600 1.480606 215.897995
v 97.784599 1.480606 215.957001
v 97.964302 1.480606 216.052994
v 98.121902 1.480606 216.182999
v 98.250999 1.480606 216.339996
v 98.347198 1.480606 216.520004
v 98.406303 1.480606 216.714996
v 98.426201 1.480606 216.917999
v 98.406303 1.480606 217.121002
v 98.347198 1.480606 217.315994
v 98.250999 1.480606 217.494995
v 98.121902 1.480606 217.653000
v 97.947601 0.115384 217.479004
v 97.964302 1.480606 217.781998
v 97.827499 0.115384 217.576996
v 97.784599 1.480606 217.878006
v 97.690300 0.115384 217.651001
v 97.589600 1.480606 217.936996
v 97.541603 0.115384 217.695999
v 97.386803 1.480606 217.957001
v 97.386803 0.115384 217.710999
v 97.183998 1.480606 217.936996
v 97.232002 0.115384 217.695999
v 96.988998 1.480606 217.878006
v 97.083298 0.115384 217.651001
v 96.809303 1.480606 217.781998
v 96.946098 0.115384 217.576996
v 96.651703 1.480606 217.653000
v 96.825996 0.115384 217.479004
v 96.522598 1.480606 217.494995
v 96.426399 1.480606 217.315994
v 96.367302 1.480606 217.121002
v 96.347397 1.480606 216.917999
v 96.367302 1.480606 216.714996
v 96.426399 1.480606 216.520004
v 96.522598 1.480606 216.339996
v 96.651703 1.480606 216.182999
v 96.809303 1.480606 216.052994
v 96.988998 1.480606 215.957001
v 98.113998 1.483907 217.645004
v 97.958199 1.483907 217.772995
v 97.183998 1.480606 215.897995
v 97.941200 -0.016830 217.472000
v 97.822403 -0.016830 217.570007
v 97.686798 -0.016830 217.641998
v 97.539703 -0.016830 217.686996
v 97.386803 -0.016830 217.701996
v 97.233902 -0.016830 217.686996
v 97.086800 -0.016830 217.641998
v 96.951202 -0.016830 217.570007
v 96.832397 -0.016830 217.472000
v 96.531700 1.483907 217.488998
v 96.436699 1.483907 217.311005
v 96.993202 1.483906 215.968002
v 97.186203 1.483906 215.908997
v 98.415199 1.483906 216.917999
v 98.395500 1.483907 217.117996
v 97.186203 1.483907 217.925995
v 96.993202 1.483907 217.867996
v 96.436699 1.483906 216.524002
v 96.531700 1.483906 216.345993
v 98.113998 1.483906 216.190002
v 98.241898 1.483906 216.345993
v 97.780403 1.483907 217.867996
v 96.378098 1.483907 217.117996
v 97.386803 1.483906 215.889008
v 97.587402 1.483906 215.908997
v 98.336899 1.483907 217.311005
v 96.815399 1.483907 217.772995
v 96.659599 1.483906 216.190002
v 98.336899 1.483906 216.524002
v 97.587402 1.483907 217.925995
v 96.358398 1.483906 216.917999
v 97.780403 1.483906 215.968002
v 98.241898 1.483907 217.488998
v 96.659599 1.483907 217.645004
v 96.815399 1.483906 216.063004
v 98.395500 1.483906 216.716995
v 97.386803 1.483907 217.945999
v 96.378098 1.483906 216.716995
v 97.958199 1.483906 216.063004
v 97.741302 1.481866 216.061996
v 97.901398 1.481866 216.147003
v 96.872200 1.481866 216.147003
v 97.032303 1.481866 216.061996
v 98.041901 1.481866 216.263000
v 97.206100 1.481866 216.009003
v 97.386803 1.481866 215.990997
v 97.567596 1.481866 216.009003
v 96.731697 1.481866 216.263000
v 97.386803 0.008282 216.266998
v 97.513802 0.008282 216.279007
v 96.926598 0.008282 216.457001
v 97.635902 0.008282 216.315994
v 97.025200 0.008282 216.376999
v 97.748398 0.008282 216.376999
v 97.137703 0.008282 216.315994
v 97.847000 0.008282 216.457001
v 97.259804 0.008282 216.279007
vn 0.7039 -0.0949 -0.7039
vn 0.3924 0.8319 -0.3924
vn 0.4568 0.8349 -0.3072
vn 0.4568 0.8349 -0.3071
vn 0.8283 -0.0947 -0.5522
vn 0.5109 0.8331 -0.2122
vn 0.5108 0.8331 -0.2123
vn 0.9210 -0.0945 -0.3779
vn 0.9210 -0.0944 -0.3779
vn 0.5422 0.8330 -0.1101
vn 0.5422 0.8330 -0.1100
vn 0.9759 -0.0944 -0.1968
vn 0.5511 0.8345 0.0001
vn 0.9759 -0.0944 -0.1967
vn 0.5511 0.8345 -0.0001
vn 0.9955 -0.0948 -0.0000
vn 0.5511 0.8345 -0.0000
vn 0.5422 0.8330 0.1100
vn 0.9759 -0.0945 0.1968
vn 0.9759 -0.0944 0.1967
vn 0.5109 0.8331 0.2121
vn 0.9759 -0.0944 0.1968
vn 0.5108 0.8331 0.2123
vn 0.9210 -0.0945 0.3779
vn 0.5109 0.8331 0.2122
vn 0.4568 0.8349 0.3072
vn 0.9210 -0.0945 0.3778
vn 0.4568 0.8348 0.3072
vn 0.8283 -0.0947 0.5522
vn 0.4568 0.8348 0.3071
vn 0.3924 0.8319 0.3924
vn 0.3924 0.8319 0.3923
vn 0.7039 -0.0949 0.7039
vn 0.5279 -0.8431 0.1024
vn 0.5364 -0.8440 -0.0000
vn 0.4486 -0.8422 -0.2991
vn 0.4487 -0.8422 -0.2991
vn 0.3788 -0.8444 -0.3788
vn 0.4966 -0.8434 0.2050
vn 0.4966 -0.8434 0.2049
vn 0.5279 -0.8431 0.1025
vn 0.9210 -0.0945 -0.3778
vn 0.4966 -0.8434 -0.2049
vn 0.8283 -0.0946 -0.5522
vn 0.4486 -0.8422 0.2991
vn 0.4487 -0.8422 0.2991
vn 0.9210 -0.0944 -0.3778
vn 0.5279 -0.8431 -0.1024
vn 0.5279 -0.8431 -0.1025
vn 0.4966 -0.8434 -0.2050
vn 0.3788 -0.8444 0.3788
vn 0.5363 -0.8440 -0.0000
vn 0.9759 -0.0945 -0.1968
vn 0.5364 -0.8440 0.0001
vn 0.3690 0.8949 -0.2512
vn 0.3143 0.8958 -0.3143
vn 0.4082 -0.8165 -0.4083
vn 0.3689 0.8949 -0.2512
vn 0.4083 -0.8165 -0.4082
vn 0.4790 -0.8167 -0.3220
vn 0.4152 0.8932 -0.1724
vn 0.4153 0.8932 -0.1724
vn 0.4790 -0.8166 -0.3220
vn 0.5339 -0.8165 -0.2198
vn 0.4393 0.8942 -0.0863
vn 0.5339 -0.8165 -0.2199
vn 0.4393 0.8942 -0.0862
vn 0.5657 -0.8172 -0.1101
vn 0.4472 0.8944 -0.0000
vn 0.4392 0.8942 -0.0863
vn 0.5658 -0.8172 -0.1100
vn 0.4472 0.8944 0.0001
vn 0.5658 -0.8172 -0.1101
vn 0.5745 -0.8185 -0.0000
vn 0.4393 0.8942 0.0863
vn 0.5745 -0.8185 -0.0001
vn 0.4392 0.8942 0.0864
vn 0.5657 -0.8172 0.1100
vn 0.4153 0.8932 0.1724
vn 0.5657 -0.8172 0.1101
vn 0.5339 -0.8165 0.2198
vn 0.3689 0.8949 0.2511
vn 0.4152 0.8932 0.1724
vn 0.5339 -0.8165 0.2199
vn 0.3690 0.8949 0.2511
vn 0.4790 -0.8166 0.3219
vn 0.3143 0.8958 0.3143
vn 0.3689 0.8949 0.2512
vn 0.4790 -0.8167 0.3219
vn 0.3143 0.8958 0.3144
vn 0.4790 -0.8166 0.3220
vn 0.4083 -0.8165 0.4082
vn -0.0000 1.0000 -0.0000
vn -0.0863 0.8942 -0.4393
vn -0.0862 0.8942 -0.4393
vn 0.0001 0.8944 -0.4472
vn -0.1724 0.8932 0.4153
vn -0.1723 0.8932 0.4153
vn -0.2512 0.8949 0.3689
vn 0.2512 0.8949 0.3689
vn 0.1724 0.8932 0.4153
vn -0.0000 0.8944 -0.4472
vn 0.0863 0.8942 -0.4393
vn -0.3143 0.8958 0.3143
vn 0.1723 0.8932 0.4153
vn 0.0863 0.8942 0.4393
vn 0.1724 0.8932 -0.4153
vn -0.3689 0.8949 0.2512
vn -0.0002 0.8944 0.4472
vn 0.2512 0.8949 -0.3689
vn -0.4153 0.8932 0.1724
vn -0.4393 0.8942 0.0863
vn -0.4472 0.8944 -0.0001
vn 0.4153 0.8932 -0.1723
vn -0.4472 0.8944 -0.0000
vn -0.4393 0.8942 -0.0863
vn -0.4393 0.8942 -0.0862
vn -0.4153 0.8932 -0.1723
vn 0.4472 0.8944 0.0002
vn -0.4153 0.8932 -0.1724
vn -0.3689 0.8949 -0.2512
vn -0.3143 0.8958 -0.3143
vn -0.2512 0.8949 -0.3689
vn -0.1723 0.8932 -0.4153
vn -0.0000 0.8944 0.4472
vn -0.0863 0.8942 0.4393
vn -0.1724 0.8932 -0.4153
vn -0.1968 0.0866 0.9766
vn -0.0000 0.0863 0.9963
vn 0.1970 0.0866 0.9766
vn 0.1969 0.0866 0.9766
vn 0.3781 0.0867 0.9217
vn 0.5526 0.0869 0.8289
vn -0.1969 0.0866 0.9766
vn 0.7045 0.0870 0.7044
vn -0.1970 0.0866 0.9766
vn 0.7044 0.0870 0.7044
vn 0.8289 0.0869 0.5525
vn 0.8289 0.0869 0.5526
vn 0.9217 0.0867 0.3781
vn 0.9766 0.0866 0.1968
vn 0.9766 0.0866 0.1969
vn 0.9963 0.0863 0.0001
vn 0.9963 0.0863 -0.0000
vn 0.9766 0.0866 -0.1969
vn 0.9217 0.0867 -0.3781
vn 0.8289 0.0869 -0.5526
vn 0.7044 0.0870 -0.7045
vn 0.7044 0.0870 -0.7044
vn 0.5526 0.0869 -0.8289
vn 0.3781 0.0867 -0.9217
vn 0.1944 0.0866 -0.9771
vn -0.1944 0.0866 0.9771
vn 0.1969 0.0866 -0.9766
vn -0.0000 0.0863 -0.9963
vn -0.1969 0.0866 -0.9766
vn -0.1970 0.0866 -0.9766
vn -0.3781 0.0867 -0.9217
vn -0.5526 0.0869 -0.8289
vn -0.5525 0.0869 -0.8289
vn -0.7044 0.0870 -0.7044
vn -0.7045 0.0870 -0.7044
vn -0.8289 0.0869 -0.5526
vn -0.9217 0.0867 -0.3782
vn -0.9217 0.0867 -0.3781
vn -0.9766 0.0866 -0.1969
vn -0.9766 0.0866 -0.1970
vn -0.9963 0.0863 -0.0000
vn -0.9766 0.0866 0.1969
vn -0.9217 0.0867 0.3781
vn -0.8289 0.0869 0.5526
vn -0.7044 0.0870 0.7044
vn -0.5526 0.0869 0.8289
vn -0.5527 0.0869 0.8289
vn -0.3781 0.0867 0.9217
vn 0.3072 0.8349 0.4568
vn 0.3071 0.8348 0.4569
vn 0.5522 -0.0947 0.8283
vn 0.3072 0.8348 0.4568
vn 0.2121 0.8331 0.5109
vn 0.2122 0.8331 0.5108
vn 0.3779 -0.0945 0.9210
vn 0.3778 -0.0945 0.9210
vn 0.1100 0.8330 0.5422
vn 0.1099 0.8330 0.5423
vn 0.1968 -0.0944 0.9759
vn -0.0000 0.8345 0.5511
vn -0.0000 -0.0948 0.9955
vn -0.1101 0.8330 0.5422
vn -0.1099 0.8330 0.5422
vn -0.1967 -0.0945 0.9759
vn -0.1968 -0.0945 0.9759
vn -0.1100 0.8330 0.5422
vn -0.2122 0.8331 0.5109
vn -0.1967 -0.0944 0.9759
vn -0.3779 -0.0945 0.9210
vn -0.3071 0.8349 0.4568
vn -0.3072 0.8349 0.4568
vn -0.5522 -0.0947 0.8283
vn -0.5522 -0.0946 0.8283
vn -0.3072 0.8348 0.4568
vn -0.3924 0.8319 0.3924
vn -0.7039 -0.0949 0.7039
vn -0.0000 -0.0000 1.0000
vn -0.0000 1.0000 0.0001
vn 0.3071 0.8348 0.4568
vn -0.2049 -0.8434 0.4966
vn -0.1024 -0.8431 0.5279
vn 0.2049 -0.8434 0.4966
vn 0.2991 -0.8422 0.4486
vn -0.2992 -0.8422 0.4486
vn -0.2990 -0.8422 0.4487
vn -0.2050 -0.8434 0.4966
vn 0.1967 -0.0944 0.9759
vn 0.1024 -0.8431 0.5279
vn -0.3787 -0.8444 0.3788
vn -0.3788 -0.8444 0.3788
vn -0.2991 -0.8422 0.4487
vn -0.0001 -0.8440 0.5364
vn 0.1968 -0.0945 0.9759
vn -0.0000 -0.8440 0.5364
vn -0.1968 -0.0944 0.9759
vn 0.2990 -0.8422 0.4487
vn -0.5108 0.8331 0.2123
vn -0.5109 0.8331 0.2123
vn -0.1100 0.8330 -0.5423
vn -0.0000 -0.0000 -1.0000
vn -0.1101 0.8330 -0.5422
vn 0.5423 0.8329 0.1100
vn -0.0000 1.0000 -0.0001
vn -0.2121 0.8331 0.5108
vn -0.4568 0.8349 -0.3072
vn 0.4569 0.8348 -0.3071
vn 0.4568 0.8348 -0.3072
vn -0.5422 0.8330 0.1100
vn 0.1101 0.8330 -0.5422
vn 0.1100 0.8330 -0.5422
vn -0.0000 0.8344 -0.5511
vn -0.3924 0.8319 -0.3924
vn -0.3924 0.8319 -0.3923
vn 0.5108 0.8331 -0.2122
vn -0.5510 0.8345 -0.0001
vn -0.5510 0.8345 -0.0000
vn 0.2121 0.8331 -0.5108
vn 0.2123 0.8331 -0.5108
vn 0.4568 0.8349 0.3071
vn -0.3072 0.8349 -0.4567
vn -0.3072 0.8349 -0.4568
vn 0.5423 0.8330 -0.1100
vn -0.5423 0.8329 -0.1101
vn -0.5422 0.8330 -0.1100
vn 0.3071 0.8349 -0.4568
vn 0.3072 0.8348 -0.4568
vn -0.4568 0.8348 0.3072
vn -0.4568 0.8349 0.3072
vn -0.2122 0.8331 -0.5109
vn -0.2122 0.8331 -0.5108
vn 0.5510 0.8345 -0.0000
vn 0.5511 0.8344 -0.0000
vn -0.5109 0.8331 -0.2122
vn -0.5109 0.8330 -0.2122
vn 0.3924 0.8319 -0.3925
vn 0.1100 -0.8172 0.5658
vn -0.0000 -0.8185 0.5745
vn 0.0862 0.8942 0.4393
vn 0.2198 -0.8165 0.5339
vn -0.3142 0.8958 0.3144
vn -0.3220 -0.8167 0.4790
vn -0.4082 -0.8165 0.4083
vn -0.3219 -0.8166 0.4791
vn 0.1724 0.8932 0.4152
vn 0.3220 -0.8166 0.4790
vn 0.2512 0.8949 0.3690
vn 0.3220 -0.8167 0.4790
vn -0.2512 0.8949 0.3690
vn -0.2198 -0.8165 0.5339
vn -0.3219 -0.8166 0.4790
vn 0.3219 -0.8167 0.4790
vn 0.4082 -0.8165 0.4083
vn -0.1100 -0.8172 0.5658
vn -0.1101 -0.8172 0.5657
vn -0.0864 0.8942 0.4393
vn -0.1100 -0.8172 0.5657
vn 0.0001 0.8944 0.4472
vn -0.0001 -0.8185 0.5745
vn -0.5108 0.8331 -0.2122
vn 0.3072 0.8349 -0.4568
vn 0.2122 0.8331 -0.5108
vn -0.3071 0.8349 -0.4568
vn -0.3072 0.8348 -0.4568
vn 0.2122 0.8331 -0.5109
vn -0.5511 0.8345 -0.0000
vn -0.0000 0.8345 -0.5511
vn -0.0000 0.8345 -0.5510
vn -0.1100 0.8330 -0.5422
vn -0.5108 0.8331 0.2122
vn 0.0001 -0.8185 0.5745
vn -0.0862 0.8942 0.4392
vn -0.0863 0.8942 0.4392
vn -0.2199 -0.8165 0.5338
vn -0.3220 -0.8166 0.4790
vn 0.3220 -0.8167 0.4789
vn 0.2198 -0.8165 0.5338
vn 0.2199 -0.8165 0.5339
vn 0.1099 -0.8172 0.5658
vn -0.4568 0.8348 0.3071
vn -0.8283 -0.0947 0.5522
vn -0.5109 0.8331 0.2121
vn -0.9210 -0.0945 0.3779
vn -0.9210 -0.0944 0.3779
vn -0.9759 -0.0945 0.1968
vn -0.9759 -0.0944 0.1967
vn -0.9759 -0.0945 0.1967
vn -0.5511 0.8345 0.0001
vn -0.9955 -0.0948 -0.0000
vn -0.9759 -0.0945 -0.1967
vn -0.9759 -0.0944 -0.1967
vn -0.9210 -0.0945 -0.3779
vn -0.4568 0.8349 -0.3071
vn -0.8283 -0.0947 -0.5522
vn -0.7039 -0.0949 -0.7039
vn -0.4486 -0.8422 -0.2991
vn -0.4966 -0.8434 -0.2049
vn -0.9210 -0.0944 0.3778
vn -0.9759 -0.0944 0.1968
vn -0.5279 -0.8431 0.1024
vn -0.9210 -0.0945 0.3778
vn -0.5279 -0.8431 0.1025
vn -0.4966 -0.8434 0.2050
vn -0.3788 -0.8444 -0.3788
vn -0.5364 -0.8440 0.0001
vn -0.5364 -0.8440 -0.0001
vn -0.9759 -0.0945 -0.1968
vn -0.5279 -0.8431 -0.1024
vn -0.5364 -0.8440 -0.0000
vn -0.4487 -0.8422 0.2991
vn -0.4487 -0.8422 0.2990
vn -0.9759 -0.0944 -0.1968
vn -0.9210 -0.0945 -0.3778
vn -0.4966 -0.8434 -0.2050
vn -0.5279 -0.8431 -0.1025
vn -0.4966 -0.8434 0.2049
vn -0.3690 0.8949 0.2511
vn -0.4790 -0.8166 0.3219
vn -0.5338 -0.8165 0.2198
vn -0.4392 0.8942 0.0863
vn -0.5339 -0.8165 0.2198
vn -0.5338 -0.8165 0.2199
vn -0.5657 -0.8172 0.1100
vn -0.5658 -0.8172 0.1100
vn -0.5745 -0.8185 -0.0000
vn -0.5745 -0.8185 0.0001
vn -0.5658 -0.8172 -0.1100
vn -0.5657 -0.8172 -0.1101
vn -0.5657 -0.8172 -0.1100
vn -0.5339 -0.8165 -0.2198
vn -0.3690 0.8949 -0.2512
vn -0.4152 0.8932 -0.1724
vn -0.4790 -0.8167 -0.3219
vn -0.4790 -0.8166 -0.3220
vn -0.4083 -0.8165 -0.4082
vn -0.3143 0.8958 0.3144
vn -0.0000 -0.8440 -0.5363
vn 0.1024 -0.8431 -0.5279
vn 0.2050 -0.8434 -0.4966
vn 0.2049 -0.8434 -0.4966
vn 0.2991 -0.8422 -0.4486
vn 0.2050 -0.8434 0.4966
vn 0.1025 -0.8431 0.5279
vn -0.0000 -0.8440 0.5363
vn -0.1025 -0.8431 0.5279
vn -0.2991 -0.8422 0.4486
vn -0.4486 -0.8422 0.2991
vn -0.5363 -0.8440 -0.0000
vn -0.2991 -0.8422 -0.4486
vn -0.2049 -0.8434 -0.4966
vn -0.2050 -0.8434 -0.4966
vn -0.1024 -0.8431 -0.5279
vn 0.4082 -0.8165 0.4082
vn 0.7044 0.0871 0.7045
vn 0.5526 0.0868 0.8289
vn -0.0000 -0.8185 -0.5745
vn -0.1100 -0.8172 -0.5658
vn -0.1969 0.0867 -0.9766
vn 0.0001 0.0862 -0.9963
vn -0.2198 -0.8165 0.5338
vn -0.3782 0.0866 0.9217
vn -0.5526 0.0868 0.8289
vn 0.3782 0.0867 0.9217
vn 0.1100 -0.8172 -0.5657
vn 0.1100 -0.8172 -0.5658
vn 0.1955 0.0866 -0.9769
vn -0.4083 -0.8165 0.4082
vn -0.3219 -0.8167 0.4790
vn -0.7044 0.0870 0.7045
vn 0.1100 -0.8172 0.5657
vn 0.3781 0.0866 0.9217
vn 0.1950 0.0866 0.9770
vn 0.2198 -0.8165 -0.5339
vn -0.4083 -0.8165 0.4083
vn -0.7044 0.0871 0.7044
vn 0.1969 0.0867 0.9766
vn -0.0001 0.0863 0.9963
vn 0.3220 -0.8166 -0.4790
vn 0.2199 -0.8165 -0.5339
vn 0.3219 -0.8167 -0.4790
vn 0.3782 0.0866 -0.9217
vn -0.5339 -0.8165 0.2199
vn -0.8289 0.0869 0.5525
vn -0.9183 0.0868 0.3863
vn 0.3219 -0.8166 -0.4790
vn 0.5526 0.0868 -0.8289
vn 0.4082 -0.8165 -0.4082
vn -0.9217 0.0867 0.3782
vn -0.9773 0.0867 0.1933
vn 0.4790 -0.8167 -0.3219
vn 0.7044 0.0871 -0.7044
vn 0.8289 0.0868 -0.5527
vn -0.9766 0.0867 0.1969
vn -0.9963 0.0863 -0.0001
vn 0.8289 0.0869 -0.5527
vn 0.9184 0.0868 -0.3861
vn -0.9963 0.0862 -0.0000
vn -0.9963 0.0863 0.0001
vn -0.9773 0.0867 -0.1935
vn 0.9217 0.0866 -0.3782
vn 0.9217 0.0867 -0.3782
vn 0.9773 0.0867 -0.1933
vn -0.9182 0.0865 -0.3866
vn 0.5657 -0.8172 -0.1100
vn 0.9766 0.0867 -0.1969
vn -0.4790 -0.8166 -0.3219
vn -0.9217 0.0866 -0.3781
vn -0.8289 0.0868 -0.5526
vn 0.5658 -0.8172 0.1100
vn 0.9963 0.0862 -0.0000
vn 0.9773 0.0867 0.1935
vn -0.4082 -0.8165 -0.4083
vn -0.8289 0.0868 -0.5527
vn -0.7044 0.0871 -0.7044
vn 0.9766 0.0867 0.1969
vn 0.9766 0.0866 0.1970
vn 0.9183 0.0866 0.3863
vn -0.3220 -0.8167 -0.4790
vn -0.7045 0.0871 -0.7044
vn -0.3220 -0.8166 -0.4790
vn -0.7044 0.0871 -0.7045
vn -0.5526 0.0868 -0.8289
vn 0.5338 -0.8165 0.2198
vn 0.9217 0.0866 0.3781
vn 0.8289 0.0868 0.5526
vn -0.2198 -0.8165 -0.5339
vn -0.3219 -0.8167 -0.4790
vn -0.2199 -0.8165 -0.5339
vn -0.5527 0.0869 -0.8289
vn -0.0001 0.0862 0.9963
vn -0.1952 0.0867 0.9769
vn 0.4790 -0.8167 0.3220
vn 0.8290 0.0868 0.5525
vn 0.7044 0.0871 0.7044
vn -0.3782 0.0867 -0.9217
vn -0.3781 0.0866 -0.9217
vn -0.1953 0.0866 -0.9769
vn -0.1969 0.0867 0.9766
vn -0.2199 -0.8165 0.5339
vn -0.3781 0.0866 0.9217
vn -0.0000 -0.0948 -0.9955
vn 0.1967 -0.0945 -0.9759
vn 0.1968 -0.0945 -0.9759
vn 0.1967 -0.0944 -0.9759
vn 0.3779 -0.0945 -0.9210
vn 0.5522 -0.0946 -0.8283
vn 0.5522 -0.0947 -0.8283
vn -0.3071 0.8348 -0.4569
vn -0.5522 -0.0947 -0.8283
vn -0.2121 0.8331 -0.5109
vn -0.3779 -0.0945 -0.9210
vn -0.3779 -0.0944 -0.9210
vn -0.1099 0.8330 -0.5423
vn -0.1968 -0.0944 -0.9759
vn -0.1968 -0.0945 -0.9759
vn -0.0001 0.8345 -0.5511
vn 0.0001 0.8344 -0.5511
vn 0.1968 -0.0944 -0.9759
vn -0.0000 -0.8440 -0.5364
vn 0.1025 -0.8431 -0.5279
vn -0.2990 -0.8422 -0.4487
vn 0.3778 -0.0945 -0.9210
vn -0.3778 -0.0945 -0.9210
vn -0.5522 -0.0946 -0.8283
vn 0.3787 -0.8444 -0.3788
vn 0.2991 -0.8422 -0.4487
vn -0.1967 -0.0944 -0.9759
vn 0.2512 0.8949 -0.3690
vn 0.1723 0.8932 -0.4153
vn -0.2511 0.8949 -0.3690
vn -0.1724 0.8932 -0.4152
vn -0.3219 -0.8166 -0.4790
vn -0.0863 0.8942 -0.4392
vn -0.1100 -0.8172 -0.5657
vn 0.0862 0.8942 -0.4393
vn 0.0863 0.8942 -0.4392
vn 0.5422 0.8330 0.1101
vn 0.5108 0.8331 0.2122
vn 0.9210 -0.0944 0.3778
vn 0.8283 -0.0946 0.5522
vn 0.4487 -0.8422 -0.2990
vn 0.4486 -0.8422 0.2992
vn 0.3788 -0.8444 0.3789
vn 0.5364 -0.8440 -0.0001
vn 0.5338 -0.8165 -0.2199
vn 0.4392 0.8942 0.0863
vn 0.4392 0.8942 0.0862
vn 0.4153 0.8932 0.1723
vn 0.5338 -0.8165 0.2199
vn -0.4568 0.8349 0.3071
vn -0.8283 -0.0946 0.5522
vn -0.5109 0.8331 0.2122
vn -0.5422 0.8330 -0.1101
vn -0.5109 0.8331 -0.2121
vn -0.4568 0.8348 -0.3072
vn -0.4486 -0.8422 0.2992
vn -0.4790 -0.8167 0.3219
vn -0.5657 -0.8172 0.1101
vn -0.4472 0.8944 0.0001
vn -0.5745 -0.8185 -0.0001
vn -0.5339 -0.8165 -0.2199
vn -0.4790 -0.8167 -0.3220
vn -0.4082 -0.8165 -0.4082
vn -0.3690 0.8949 0.2512
vn -0.4790 -0.8167 0.3220
vn 0.2121 0.8331 -0.5109
vn 0.3071 0.8348 -0.4568
vn 0.3923 0.8319 -0.3924
vn -0.0001 0.8345 -0.5510
vn -0.2990 -0.8422 -0.4486
vn 0.3789 -0.8444 -0.3788
vn -0.1025 -0.8431 -0.5279
vn 0.1724 0.8932 -0.4152
vn 0.2199 -0.8165 -0.5338
vn 0.2198 -0.8165 -0.5338
vn -0.2512 0.8949 -0.3690
vn -0.1099 -0.8172 -0.5657
vn 0.0001 -0.8185 -0.5745
vn 0.2123 0.8331 0.5108
vn 0.3779 -0.0944 0.9210
vn -0.0000 0.8345 0.5510
vn 0.1967 -0.0945 0.9759
vn -0.0001 0.8345 0.5511
vn 0.0001 0.8345 0.5511
vn -0.2121 0.8331 0.5109
vn -0.2122 0.8331 0.5108
vn 0.3071 0.8349 0.4568
vn 0.2991 -0.8422 0.4487
vn 0.2122 0.8331 0.5109
vt 8.068350 -3.076840
vt 8.090900 -2.908510
vt 8.071420 -2.908510
vt 8.053700 -3.076840
vt 8.049190 -2.908510
vt 8.036990 -3.076840
vt 8.025080 -2.908510
vt 8.018860 -3.076840
vt 8.000000 -2.908510
vt 8.000000 -3.076840
vt 7.974920 -2.908510
vt 7.981140 -3.076840
vt 7.950810 -2.908510
vt 7.963010 -3.076840
vt 7.928580 -2.908510
vt 7.946300 -3.076840
vt 7.909100 -2.908510
vt 7.931650 -3.076840
vt 7.981140 -3.091490
vt 8.000000 -3.091490
vt 8.053700 -3.091490
vt 8.068350 -3.091490
vt 7.963010 -3.091490
vt 8.036990 -3.091490
vt 7.946300 -3.091490
vt 8.018860 -3.091490
vt 7.931650 -3.091490
vt 7.935040 -2.908510
vt 7.917320 -2.908510
vt 7.941450 -3.088410
vt 7.954000 -3.088410
vt 7.955260 -2.908510
vt 7.968310 -3.088410
vt 7.977190 -2.908510
vt 7.983850 -3.088410
vt 8.000000 -3.088410
vt 8.022810 -2.908510
vt 8.016150 -3.088410
vt 8.044740 -2.908510
vt 8.031690 -3.088410
vt 8.064960 -2.908510
vt 8.046000 -3.088410
vt 8.082680 -2.908510
vt 8.058550 -3.088410
vt 8.000000 -2.871450
vt 7.974920 -2.873920
vt 7.977190 -2.885320
vt 8.000000 -2.883080
vt 7.928580 -3.106890
vt 7.950810 -3.118770
vt 7.955260 -3.108020
vt 7.935040 -3.097220
vt 8.049190 -3.118770
vt 8.071420 -3.106890
vt 8.064960 -3.097220
vt 8.044740 -3.108020
vt 8.025080 -2.873920
vt 8.022810 -2.885320
vt 7.909100 -3.090900
vt 7.917320 -3.082680
vt 8.025080 -3.126080
vt 8.022810 -3.114680
vt 8.049200 -2.881230
vt 8.044740 -2.891980
vt 7.893110 -3.071420
vt 7.902780 -3.064960
vt 8.000000 -3.128550
vt 8.000000 -3.116920
vt 8.071420 -2.893110
vt 8.064960 -2.902780
vt 7.881230 -3.049190
vt 7.891980 -3.044740
vt 8.090900 -2.909100
vt 8.082680 -2.917320
vt 7.873920 -3.025080
vt 7.885320 -3.022810
vt 8.106890 -2.928580
vt 8.097220 -2.935040
vt 7.871450 -3.000000
vt 7.883080 -3.000000
vt 8.118770 -2.950810
vt 8.108020 -2.955260
vt 7.873920 -2.974920
vt 7.885320 -2.977190
vt 8.126080 -2.974920
vt 8.114680 -2.977190
vt 7.881230 -2.950810
vt 7.891980 -2.955260
vt 8.128550 -3.000000
vt 8.116920 -3.000000
vt 7.893110 -2.928580
vt 7.902780 -2.935040
vt 8.126080 -3.025080
vt 8.114680 -3.022810
vt 7.909100 -2.909100
vt 7.917320 -2.917320
vt 8.118770 -3.049190
vt 8.108020 -3.044740
vt 7.928580 -2.893110
vt 7.935040 -2.902780
vt 8.106890 -3.071420
vt 8.097220 -3.064960
vt 7.950810 -2.881230
vt 7.955260 -2.891980
vt 7.974920 -3.126080
vt 7.977190 -3.114680
vt 8.090900 -3.090900
vt 8.082680 -3.082680
vt 7.983600 -3.082470
vt 8.000000 -3.084090
vt 8.016400 -3.082470
vt 8.032180 -3.077680
vt 8.046710 -3.069910
vt 8.059460 -3.059460
vt 8.069910 -3.046720
vt 8.077680 -3.032180
vt 8.082470 -3.016400
vt 8.084090 -3.000000
vt 8.082470 -2.983600
vt 8.077680 -2.967820
vt 8.069910 -2.953280
vt 8.059460 -2.940540
vt 8.046720 -2.930090
vt 8.032180 -2.922320
vt 8.016400 -2.917530
vt 8.000000 -2.915910
vt 7.983600 -2.917530
vt 7.967820 -2.922320
vt 7.953280 -2.930090
vt 7.940540 -2.940540
vt 7.930090 -2.953280
vt 7.922320 -2.967820
vt 7.917530 -2.983600
vt 7.915910 -3.000000
vt 7.917530 -3.016400
vt 7.922320 -3.032180
vt 7.930090 -3.046720
vt 7.940540 -3.059460
vt 7.953280 -3.069910
vt 7.967820 -3.077680
vt 7.881230 -2.908510
vt 7.893110 -2.908510
vt 8.126080 -2.908510
vt 8.128550 -2.908510
vt 8.106890 -2.908510
vt 7.873920 -2.908510
vt 8.118770 -2.908510
vt 7.871450 -2.908510
vt 0.500000 1.000000
vt 0.437171 0.016832
vt 0.500000 0.016832
vt 0.411280 1.000000
vt 0.376755 0.016832
vt 0.325969 1.000000
vt 0.821569 1.000000
vt 0.678924 0.016832
vt 0.727727 0.016832
vt 0.752655 1.000000
vt 0.321076 0.016832
vt 0.247345 1.000000
vt 0.623245 0.016832
vt 0.674032 1.000000
vt 0.272273 0.016832
vt 0.178431 1.000000
vt 0.562830 0.016832
vt 0.588721 1.000000
vt 0.853553 1.000000
vt 0.777785 1.000000
vt 0.038061 1.000000
vt 0.009607 1.000000
vt 0.402455 1.000000
vt 1.000000 1.000000
vt 0.990393 1.000000
vt 0.308659 1.000000
vt 0.222215 1.000000
vt 0.084265 1.000000
vt 0.146446 1.000000
vt 0.915735 1.000000
vt 0.691342 1.000000
vt 0.000000 1.000000
vt 0.597545 1.000000
vt 0.961940 1.000000
vt 0.146447 1.000000
vt 0.009607 1.000000
vt 0.084266 1.000000
vt 0.308658 1.000000
vt 0.402456 1.000000
vt 0.038060 1.000000
vt 8.000000 -3.096670
vt 8.018860 -3.094810
vt 8.036990 -3.089310
vt 8.053700 -3.080370
vt 8.068350 -3.068350
vt 8.080370 -3.053700
vt 8.089310 -3.036990
vt 8.094810 -3.018860
vt 8.096670 -3.000000
vt 8.094810 -2.981140
vt 8.089310 -2.963010
vt 8.080370 -2.946300
vt 8.068350 -2.931650
vt 8.053700 -2.919630
vt 8.036990 -2.910690
vt 8.018860 -2.905190
vt 8.000000 -2.903330
vt 7.981140 -2.905190
vt 7.963010 -2.910690
vt 7.946300 -2.919630
vt 7.931650 -2.931650
vt 7.919630 -2.946300
vt 7.910690 -2.963010
vt 7.905190 -2.981140
vt 7.903330 -3.000000
vt 7.905190 -3.018860
vt 7.910690 -3.036990
vt 7.919630 -3.053700
vt 7.931650 -3.068350
vt 7.946300 -3.080370
vt 7.963010 -3.089310
vt 7.981140 -3.094810
vt 7.954000 -3.068850
vt 7.941450 -3.058550
vt 8.000000 -2.917200
vt 8.016150 -2.918790
vt 8.046000 -3.068850
vt 8.031690 -3.076500
vt 8.046720 -3.069910
vt 7.968310 -3.076500
vt 7.983850 -2.918790
vt 8.058550 -3.058550
vt 7.983850 -3.081210
vt 7.968310 -2.923500
vt 8.068850 -3.046000
vt 8.000000 -3.082800
vt 7.954000 -2.931150
vt 8.076500 -3.031690
vt 7.941450 -2.941450
vt 8.081210 -3.016150
vt 7.931150 -2.954000
vt 8.082800 -3.000000
vt 7.923500 -2.968310
vt 8.081210 -2.983850
vt 7.918790 -2.983850
vt 8.076500 -2.968310
vt 7.917200 -3.000000
vt 8.068850 -2.954000
vt 7.918790 -3.016150
vt 8.058550 -2.941450
vt 7.923500 -3.031690
vt 8.046000 -2.931150
vt 7.931150 -3.046000
vt 8.031690 -2.923500
vt 8.016150 -3.081210
vt 0.765856 0.080098
vt 0.708882 0.080098
vt 0.643880 0.080098
vt 0.573349 0.080098
vt 0.500000 0.080098
vt 0.426650 0.080098
vt 0.356120 0.080098
vt 0.291118 0.080098
vt 0.234143 0.080098
vt 0.426650 0.000000
vt 0.500000 0.000000
vt 0.708882 0.000000
vt 0.765856 0.000000
vt 0.356119 0.000000
vt 0.643880 0.000000
vt 0.291118 0.000000
vt 0.573349 0.000000
vt 0.234143 0.000000
vt 0.272273 0.016832
vt 0.321076 0.016832
vt 0.325968 1.000000
vt 0.376755 0.016832
vt 0.437170 0.016832
vt 0.500000 0.016832
vt 0.562830 0.016832
vt 0.752656 1.000000
vt 0.691341 1.000000
vt 0.499999 1.000000
vt 0.402454 1.000000
vt 0.356119 0.080098
vt 0.222214 1.000000
vt 0.411279 1.000000
vt 0.623245 0.016832
vt 0.678924 0.016832
vt 0.727727 0.016832
vt 0.234144 0.080098
vt 0.597544 1.000000
vt 0.356120 0.000000
vt 0.234144 0.000000
vt 0.708882 0.080098
vt 0.643880 0.080098
vt 0.573350 0.080098
vt 0.500000 0.080098
vt 0.426650 0.080098
vt 0.356119 0.080098
vt 0.291118 0.080098
vt 0.573350 0.000000
s 0
usemtl 
f 2/1/1 1/2/2 3/3/3
f 2/1/1 3/3/4 4/4/5
f 4/4/5 3/3/4 5/5/6
f 4/4/5 5/5/7 6/6/8
f 6/6/9 5/5/6 7/7/10
f 6/6/8 7/7/11 8/8/12
f 8/8/12 7/7/11 9/9/13
f 8/8/14 9/9/15 10/10/16
f 10/10/16 9/9/17 11/11/18
f 10/10/16 11/11/18 12/12/19
f 12/12/20 11/11/18 13/13/21
f 12/12/22 13/13/23 14/14/24
f 14/14/24 13/13/25 15/15/26
f 14/14/27 15/15/28 16/16/29
f 16/16/29 15/15/30 17/17/31
f 16/16/29 17/17/32 18/18/33
f 10/10/16 12/12/19 19/19/34
f 10/10/16 19/19/34 20/20/35
f 2/1/1 4/4/5 22/21/36
f 2/1/1 22/21/37 21/22/38
f 12/12/20 14/14/27 25/23/39
f 12/12/22 25/23/40 19/19/41
f 4/4/5 6/6/42 23/24/43
f 4/4/44 23/24/43 22/21/37
f 14/14/24 16/16/29 26/25/45
f 14/14/24 26/25/46 25/23/39
f 6/6/47 8/8/12 24/26/48
f 6/6/42 24/26/49 23/24/50
f 16/16/29 18/18/33 27/27/51
f 16/16/29 27/27/51 26/25/45
f 8/8/12 10/10/16 20/20/52
f 8/8/53 20/20/54 24/26/49
f 29/28/55 28/29/56 37/30/57
f 29/28/58 37/30/59 38/31/60
f 30/32/61 29/28/58 38/31/60
f 30/32/62 38/31/63 39/33/64
f 31/34/65 30/32/62 39/33/66
f 31/34/67 39/33/64 40/35/68
f 32/9/69 31/34/70 40/35/71
f 32/9/72 40/35/73 41/36/74
f 33/37/75 32/9/69 41/36/76
f 33/37/77 41/36/74 42/38/78
f 34/39/79 33/37/75 42/38/80
f 34/39/79 42/38/78 43/40/81
f 35/41/82 34/39/83 43/40/84
f 35/41/85 43/40/81 44/42/86
f 36/43/87 35/41/88 44/42/89
f 36/43/90 44/42/91 45/44/92
f 75/45/93 68/46/93 78/47/94
f 75/45/93 78/47/95 79/48/96
f 77/49/93 70/50/93 80/51/97
f 77/49/93 80/51/98 81/52/99
f 50/53/93 73/54/93 82/55/100
f 50/53/93 82/55/100 83/56/101
f 54/57/93 75/45/93 79/48/102
f 54/57/93 79/48/102 84/58/103
f 58/59/93 77/49/93 81/52/99
f 58/59/93 81/52/99 85/60/104
f 51/61/93 50/53/93 83/56/101
f 51/61/93 83/56/105 86/62/106
f 55/63/93 54/57/93 84/58/103
f 55/63/93 84/58/103 87/64/107
f 59/65/93 58/59/93 85/60/104
f 59/65/93 85/60/104 88/66/108
f 62/67/93 51/61/93 86/62/106
f 62/67/93 86/62/106 89/68/109
f 65/69/93 55/63/93 87/64/107
f 65/69/93 87/64/107 90/70/110
f 67/71/93 59/65/93 88/66/108
f 67/71/93 88/66/108 91/72/111
f 72/73/93 65/69/93 90/70/110
f 72/73/93 90/70/110 92/74/56
f 74/75/93 67/71/93 91/72/111
f 74/75/93 91/72/111 93/76/112
f 48/77/93 72/73/93 92/74/56
f 48/77/93 92/74/56 94/78/58
f 52/79/93 74/75/93 93/76/112
f 52/79/93 93/76/112 95/80/113
f 49/81/93 48/77/93 94/78/58
f 49/81/93 94/78/58 96/82/114
f 53/83/93 52/79/93 95/80/115
f 53/83/93 95/80/115 97/84/116
f 61/85/93 49/81/93 96/82/62
f 61/85/93 96/82/114 98/86/65
f 64/87/93 53/83/93 97/84/116
f 64/87/93 97/84/117 99/88/118
f 69/89/93 61/85/93 98/86/65
f 69/89/93 98/86/67 100/90/119
f 71/91/93 64/87/93 99/88/120
f 71/91/93 99/88/120 101/92/121
f 76/93/93 69/89/93 100/90/69
f 76/93/93 100/90/69 102/94/75
f 46/95/93 71/91/93 101/92/121
f 46/95/93 101/92/121 103/96/122
f 56/97/93 76/93/93 102/94/75
f 56/97/93 102/94/75 104/98/79
f 47/99/93 46/95/93 103/96/122
f 47/99/93 103/96/122 105/100/123
f 57/101/93 56/97/93 104/98/79
f 57/101/93 104/98/79 106/102/88
f 60/103/93 47/99/93 105/100/123
f 60/103/93 105/100/123 107/104/124
f 63/105/93 62/67/93 89/68/125
f 63/105/93 89/68/125 108/106/126
f 66/107/93 57/101/93 106/102/88
f 66/107/93 106/102/88 109/108/87
f 68/46/93 60/103/93 107/104/127
f 68/46/93 107/104/127 78/47/94
f 70/50/93 63/105/93 108/106/126
f 70/50/93 108/106/126 80/51/98
f 73/54/93 66/107/93 109/108/87
f 73/54/93 109/108/87 82/55/100
f 141/109/128 122/110/129 119/111/130
f 141/109/128 119/111/131 116/112/132
f 141/109/128 116/112/132 111/113/133
f 141/109/134 111/113/133 110/114/135
f 141/109/136 110/114/137 139/115/138
f 141/109/128 139/115/139 137/116/140
f 141/109/136 137/116/140 135/117/141
f 141/109/136 135/117/142 133/118/143
f 141/109/134 133/118/144 131/119/145
f 141/109/134 131/119/145 129/120/146
f 141/109/128 129/120/146 127/121/147
f 141/109/136 127/121/147 125/122/148
f 141/109/136 125/122/149 123/123/150
f 141/109/136 123/123/150 120/124/151
f 141/109/134 120/124/151 117/125/152
f 141/109/153 117/125/154 113/126/155
f 141/109/134 113/126/155 112/127/156
f 141/109/134 112/127/157 140/128/158
f 141/109/128 140/128/158 138/129/159
f 141/109/128 138/129/160 136/130/161
f 141/109/134 136/130/162 134/131/163
f 141/109/128 134/131/163 132/132/164
f 141/109/134 132/132/165 130/133/166
f 141/109/134 130/133/167 128/134/168
f 141/109/136 128/134/168 126/135/169
f 141/109/134 126/135/169 124/136/170
f 141/109/134 124/136/170 121/137/171
f 141/109/136 121/137/171 118/138/172
f 141/109/134 118/138/172 115/139/173
f 141/109/134 115/139/174 114/140/175
f 155/1/33 154/2/31 156/3/176
f 155/1/33 156/3/177 157/4/178
f 157/4/178 156/3/179 158/5/180
f 157/4/178 158/5/181 159/6/182
f 159/6/183 158/5/181 160/7/184
f 159/6/182 160/7/185 161/8/186
f 161/8/186 160/7/184 162/9/187
f 161/8/186 162/9/187 163/10/188
f 163/10/188 162/9/187 164/11/189
f 163/10/188 164/11/190 165/12/191
f 165/12/192 164/11/193 166/13/194
f 165/12/195 166/13/194 167/14/196
f 167/14/196 166/13/194 168/15/197
f 167/14/196 168/15/198 169/16/199
f 169/16/200 168/15/201 170/17/202
f 169/16/199 170/17/202 171/18/203
f 156/3/176 154/2/204 182/2/205
f 156/3/206 182/2/93 183/3/204
f 165/12/191 167/14/196 191/23/207
f 165/12/192 191/23/207 190/19/208
f 157/4/178 159/6/182 187/24/209
f 157/4/178 187/24/209 186/21/210
f 167/14/196 169/16/199 192/25/211
f 167/14/196 192/25/212 191/23/213
f 159/6/182 161/8/214 188/26/215
f 159/6/182 188/26/215 187/24/209
f 169/16/199 171/18/203 193/27/216
f 169/16/199 193/27/217 192/25/218
f 161/8/214 163/10/188 189/20/219
f 161/8/220 189/20/221 188/26/215
f 163/10/188 165/12/222 190/19/208
f 163/10/188 190/19/208 189/20/221
f 155/1/33 157/4/178 186/21/210
f 155/1/33 186/21/223 185/22/51
f 173/141/224 172/142/204 194/142/93
f 173/141/225 194/142/93 195/141/204
f 184/11/226 181/13/227 196/13/93
f 184/11/228 196/13/93 197/11/204
f 151/143/229 150/144/227 198/144/93
f 151/143/18 198/144/230 199/143/204
f 166/13/231 164/11/204 200/11/93
f 166/13/194 200/11/93 201/13/204
f 178/142/232 177/141/227 202/141/93
f 178/142/232 202/141/93 203/142/204
f 147/145/233 146/2/227 204/2/93
f 147/145/234 204/2/93 205/145/204
f 158/5/181 156/3/204 183/3/93
f 158/5/181 183/3/205 206/5/204
f 174/146/235 173/141/204 195/141/93
f 174/146/235 195/141/93 207/146/204
f 143/7/236 142/9/227 208/9/93
f 143/7/237 208/9/205 209/7/227
f 142/9/238 184/11/227 197/11/93
f 142/9/238 197/11/93 208/9/227
f 152/147/25 151/143/204 199/143/205
f 152/147/25 199/143/93 210/147/204
f 168/15/197 166/13/204 201/13/93
f 168/15/197 201/13/93 211/15/227
f 179/17/239 178/142/227 203/142/93
f 179/17/240 203/142/93 212/17/227
f 148/147/241 147/145/227 205/145/205
f 148/147/241 205/145/93 213/147/204
f 160/7/184 158/5/204 206/5/205
f 160/7/184 206/5/205 214/7/204
f 175/148/242 174/146/204 207/146/93
f 175/148/243 207/146/93 215/148/227
f 144/5/244 143/7/227 209/7/93
f 144/5/245 209/7/93 216/5/204
f 153/145/246 152/147/204 210/147/93
f 153/145/28 210/147/93 217/145/204
f 170/17/202 168/15/204 211/15/93
f 170/17/202 211/15/93 218/17/204
f 180/15/247 179/17/227 212/17/93
f 180/15/248 212/17/93 219/15/227
f 149/143/11 148/147/227 213/147/93
f 149/143/249 213/147/93 220/143/204
f 162/9/187 160/7/204 214/7/93
f 162/9/187 214/7/93 221/9/204
f 176/146/250 175/148/204 215/148/93
f 176/146/251 215/148/93 222/146/204
f 145/3/252 144/5/227 216/5/93
f 145/3/253 216/5/205 223/3/204
f 154/2/31 153/145/204 217/145/93
f 154/2/31 217/145/93 182/2/204
f 172/142/254 170/17/204 218/17/93
f 172/142/255 218/17/93 194/142/204
f 181/13/256 180/15/227 219/15/93
f 181/13/257 219/15/93 196/13/227
f 150/144/258 149/143/227 220/143/93
f 150/144/259 220/143/230 198/144/204
f 164/11/189 162/9/204 221/9/93
f 164/11/193 221/9/93 200/11/227
f 177/141/260 176/146/227 222/146/93
f 177/141/261 222/146/93 202/141/204
f 146/2/2 145/3/227 223/3/93
f 146/2/262 223/3/93 204/2/204
f 231/37/126 230/9/125 233/36/297
f 231/37/298 233/36/264 234/38/280
f 224/39/97 231/37/299 234/38/283
f 224/39/97 234/38/280 236/40/276
f 226/28/100 232/29/87 235/30/279
f 226/28/273 235/30/279 237/31/274
f 225/41/275 224/39/98 236/40/300
f 225/41/99 236/40/276 238/42/301
f 227/32/101 226/28/100 237/31/302
f 227/32/101 237/31/272 239/33/266
f 228/43/104 225/41/275 238/42/301
f 228/43/104 238/42/277 240/44/269
f 229/34/106 227/32/101 239/33/303
f 229/34/265 239/33/304 241/35/305
f 230/9/125 229/34/106 241/35/263
f 230/9/125 241/35/263 233/36/264
f 243/1/203 242/2/202 244/3/306
f 243/1/203 244/3/306 245/4/307
f 245/4/307 244/3/255 246/5/296
f 245/4/307 246/5/308 247/6/309
f 247/6/309 246/5/296 248/7/235
f 247/6/310 248/7/235 249/8/311
f 249/8/312 248/7/235 250/9/243
f 249/8/313 250/9/314 251/10/315
f 251/10/315 250/9/292 252/11/251
f 251/10/315 252/11/251 253/12/316
f 253/12/317 252/11/251 254/13/286
f 253/12/317 254/13/286 255/14/318
f 255/14/318 254/13/260 256/15/319
f 255/14/318 256/15/319 257/16/320
f 257/16/320 256/15/232 258/17/239
f 257/16/320 258/17/239 259/18/321
f 255/14/318 257/16/320 267/25/322
f 255/14/318 267/25/322 266/23/323
f 247/6/324 249/8/325 263/26/326
f 247/6/327 263/26/328 262/24/329
f 257/16/320 259/18/321 268/27/330
f 257/16/320 268/27/330 267/25/322
f 249/8/311 251/10/315 264/20/331
f 249/8/311 264/20/332 263/26/328
f 251/10/315 253/12/333 265/19/334
f 251/10/315 265/19/334 264/20/335
f 243/1/203 245/4/307 261/21/336
f 243/1/203 261/21/337 260/22/217
f 253/12/338 255/14/339 266/23/340
f 253/12/338 266/23/323 265/19/341
f 245/4/307 247/6/309 262/24/329
f 245/4/307 262/24/342 261/21/336
f 271/32/111 270/28/343 278/31/344
f 271/32/111 278/31/344 279/33/345
f 272/34/346 271/32/111 279/33/347
f 272/34/346 279/33/348 280/35/349
f 273/9/113 272/34/112 280/35/350
f 273/9/115 280/35/350 281/36/351
f 274/37/116 273/9/115 281/36/351
f 274/37/117 281/36/352 282/38/353
f 275/39/118 274/37/116 282/38/354
f 275/39/120 282/38/355 283/40/356
f 276/41/357 275/39/358 283/40/356
f 276/41/357 283/40/356 284/42/359
f 277/43/122 276/41/121 284/42/360
f 277/43/122 284/42/360 285/44/361
f 270/28/108 269/29/362 286/30/269
f 270/28/108 286/30/269 278/31/344
f 289/189/363 290/190/364 291/191/365
f 289/189/363 291/191/366 292/192/367
f 289/189/363 292/192/367 293/193/38
f 289/189/363 293/193/38 294/194/36
f 289/189/363 294/194/36 295/195/50
f 289/189/363 295/195/50 296/196/48
f 289/189/363 296/196/48 288/197/52
f 289/189/363 288/197/52 287/198/34
f 289/189/363 287/198/34 297/199/40
f 289/189/363 297/199/40 298/200/45
f 289/189/363 298/200/45 299/201/51
f 289/189/363 299/201/51 300/202/210
f 289/189/363 300/202/210 301/203/209
f 289/189/363 301/203/368 302/204/369
f 289/189/363 302/204/215 303/205/370
f 289/189/363 303/205/370 304/206/208
f 289/189/363 304/206/371 305/207/213
f 289/189/363 305/207/207 306/208/372
f 289/189/363 306/208/372 307/209/217
f 289/189/363 307/209/217 308/210/373
f 289/189/363 308/210/373 309/211/342
f 289/189/363 309/211/342 310/212/326
f 289/189/363 310/212/326 311/213/374
f 289/189/363 311/213/374 312/214/334
f 289/189/363 312/214/334 313/215/340
f 289/189/363 313/215/323 314/216/322
f 289/189/363 314/216/322 315/217/330
f 289/189/363 315/217/330 316/218/375
f 289/189/363 316/218/375 317/219/376
f 289/189/363 317/219/377 318/220/378
f 344/221/272 341/222/379 351/138/135
f 344/221/278 351/138/380 352/139/381
f 345/223/382 342/224/383 353/125/156
f 345/223/382 353/125/384 354/126/385
f 346/225/277 343/226/386 355/112/175
f 346/225/277 355/112/387 356/227/388
f 347/228/303 344/221/272 352/139/133
f 347/228/266 352/139/133 357/140/389
f 348/229/390 345/223/382 354/126/155
f 348/229/391 354/126/155 358/127/392
f 349/230/393 346/225/394 356/227/173
f 349/230/269 356/227/388 359/114/395
f 350/231/396 347/228/266 357/140/397
f 350/231/263 357/140/132 360/109/398
f 319/232/399 348/229/391 358/127/154
f 319/232/399 358/127/154 361/128/151
f 321/233/344 349/230/400 359/114/401
f 321/233/344 359/114/172 362/115/171
f 339/234/264 350/231/396 360/109/402
f 339/234/264 360/109/402 363/110/403
f 320/235/404 319/232/405 361/128/151
f 320/235/406 361/128/407 364/129/150
f 322/236/408 321/233/344 362/115/171
f 322/236/348 362/115/409 365/116/410
f 323/237/59 320/235/411 364/129/412
f 323/237/413 364/129/150 366/130/148
f 324/238/350 322/236/347 365/116/414
f 324/238/349 365/116/414 367/117/415
f 325/239/416 323/237/59 366/130/149
f 325/239/63 366/130/417 368/131/418
f 326/240/351 324/238/349 367/117/419
f 326/240/351 367/117/419 369/118/420
f 327/241/64 325/239/63 368/131/147
f 327/241/64 368/131/421 370/132/422
f 328/242/355 326/240/351 369/118/423
f 328/242/355 369/118/424 371/119/425
f 329/243/71 327/241/64 370/132/426
f 329/243/71 370/132/427 372/133/428
f 330/244/356 328/242/353 371/119/166
f 330/244/356 371/119/166 373/120/429
f 331/245/74 329/243/430 372/133/431
f 331/245/74 372/133/431 374/134/143
f 332/246/432 330/244/356 373/120/433
f 332/246/432 373/120/433 375/121/434
f 333/247/435 331/245/74 374/134/436
f 333/247/435 374/134/144 376/135/437
f 334/248/438 332/246/360 375/121/434
f 334/248/438 375/121/439 377/122/440
f 335/249/84 333/247/78 376/135/441
f 335/249/81 376/135/442 378/136/443
f 336/250/444 334/248/361 377/122/445
f 336/250/446 377/122/447 379/123/448
f 337/251/91 335/249/449 378/136/450
f 337/251/89 378/136/140 380/137/451
f 338/252/452 336/250/453 379/123/159
f 338/252/454 379/123/455 381/124/158
f 340/253/283 339/234/264 363/110/129
f 340/253/280 363/110/456 382/111/457
f 341/222/279 337/251/458 380/137/139
f 341/222/279 380/137/459 351/138/460
f 342/224/383 338/252/454 381/124/461
f 342/224/383 381/124/462 353/125/463
f 343/226/386 340/253/280 382/111/464
f 343/226/465 382/111/128 355/112/466
f 383/10/467 384/9/294 385/11/237
f 383/10/467 385/11/237 386/12/468
f 386/12/469 385/11/237 387/13/291
f 386/12/470 387/13/288 388/14/471
f 388/14/471 387/13/288 389/15/252
f 388/14/471 389/15/252 390/16/472
f 390/16/473 389/15/253 391/17/2
f 390/16/473 391/17/2 392/18/1
f 394/1/321 393/2/239 395/3/289
f 394/1/321 395/3/474 396/4/475
f 396/4/475 395/3/248 397/5/476
f 396/4/475 397/5/256 398/6/477
f 398/6/478 397/5/257 399/7/295
f 398/6/477 399/7/479 400/8/480
f 400/8/481 399/7/228 384/9/482
f 400/8/480 384/9/483 383/10/467
f 383/10/467 386/12/484 402/19/364
f 383/10/467 402/19/364 401/20/485
f 400/8/480 383/10/467 401/20/485
f 400/8/481 401/20/485 409/26/378
f 386/12/484 388/14/471 403/23/366
f 386/12/470 403/23/366 402/19/486
f 394/1/321 396/4/475 407/21/375
f 394/1/321 407/21/487 406/22/330
f 388/14/488 390/16/473 404/25/367
f 388/14/488 404/25/367 403/23/365
f 396/4/475 398/6/489 408/24/376
f 396/4/490 408/24/376 407/21/375
f 390/16/473 392/18/1 405/27/491
f 390/16/473 405/27/38 404/25/492
f 398/6/477 400/8/493 409/26/378
f 398/6/477 409/26/378 408/24/376
f 414/41/494 413/39/495 419/40/399
f 414/41/110 419/40/399 420/42/411
f 415/43/56 414/41/110 420/42/406
f 415/43/56 420/42/411 421/44/57
f 417/28/123 416/29/122 422/30/438
f 417/28/496 422/30/361 423/31/453
f 418/32/497 417/28/123 423/31/498
f 418/32/124 423/31/446 424/33/454
f 410/34/499 418/32/127 424/33/452
f 410/34/94 424/33/452 425/35/500
f 411/9/102 410/34/94 425/35/383
f 411/9/102 425/35/383 426/36/382
f 412/37/501 411/9/102 426/36/382
f 412/37/103 426/36/382 427/38/391
f 413/39/107 412/37/502 427/38/391
f 413/39/107 427/38/391 419/40/399
usemtl tokencup.002
f 651/149/125 662/150/263 654/151/264
f 651/149/125 650/152/265 662/150/263
f 650/152/265 660/153/266 662/150/263
f 650/152/106 648/154/101 660/153/266
f 649/155/267 659/156/268 661/157/269
f 649/155/104 646/158/99 659/156/270
f 648/154/271 658/159/272 660/153/266
f 648/154/105 647/160/273 658/159/274
f 646/158/275 657/161/276 659/156/277
f 646/158/99 645/162/98 657/161/276
f 647/160/100 656/163/92 658/159/278
f 647/160/100 653/164/87 656/163/279
f 645/162/97 655/165/280 657/161/276
f 645/162/97 652/166/126 655/165/281
f 652/166/282 654/151/264 655/165/283
f 652/166/126 651/149/284 654/151/285
f 567/167/2 644/168/93 625/167/93
f 567/167/2 566/168/252 644/168/93
f 598/169/286 643/170/93 623/169/93
f 598/169/260 597/170/251 643/170/93
f 585/171/193 642/149/93 621/171/93
f 585/171/193 583/149/187 642/149/93
f 571/172/17 641/173/93 619/172/93
f 571/172/17 570/173/11 641/173/93
f 602/174/257 640/175/93 617/174/93
f 602/174/257 601/175/248 640/175/93
f 593/176/255 639/177/93 615/176/93
f 593/176/255 591/177/202 639/177/93
f 575/167/31 638/178/93 603/167/93
f 575/167/31 574/178/28 638/178/93
f 566/168/287 637/179/93 644/168/93
f 566/168/253 565/179/288 637/179/93
f 597/170/251 636/180/93 643/170/93
f 597/170/251 596/180/243 636/180/93
f 583/149/187 635/181/93 642/149/93
f 583/149/187 581/181/184 635/181/93
f 570/173/249 634/182/93 641/173/93
f 570/173/11 569/182/6 634/182/93
f 601/175/289 633/183/93 640/175/93
f 601/175/290 600/183/239 633/183/93
f 591/177/202 632/175/93 639/177/93
f 591/177/202 589/175/198 632/175/93
f 574/178/26 631/182/93 638/178/93
f 574/178/26 573/182/25 631/182/93
f 565/179/291 630/181/93 637/179/93
f 565/179/288 564/181/237 630/181/93
f 596/180/292 628/184/93 636/180/93
f 596/180/292 595/184/235 628/184/93
f 581/181/184 627/179/93 635/181/93
f 581/181/184 579/179/181 627/179/93
f 569/182/241 626/178/93 634/182/93
f 569/182/6 568/178/3 626/178/93
f 600/183/239 624/185/93 633/183/93
f 600/183/239 599/185/232 624/185/93
f 589/175/198 622/186/93 632/175/93
f 589/175/201 587/186/194 622/186/93
f 573/182/25 620/173/93 631/182/93
f 573/182/25 572/173/18 620/173/93
f 563/149/293 618/187/93 629/149/93
f 563/149/294 605/187/295 618/187/93
f 564/181/237 629/149/93 630/181/93
f 564/181/237 563/149/293 629/149/93
f 595/184/235 616/188/93 628/184/93
f 595/184/235 594/188/296 616/188/93
f 429/254/1 428/167/2 430/168/234
f 429/254/1 430/168/4 431/255/5
f 431/255/5 430/168/233 432/179/6
f 431/255/5 432/179/7 433/256/8
f 433/256/8 432/179/241 434/181/11
f 433/256/8 434/181/11 435/257/53
f 435/257/12 434/181/11 436/149/258
f 435/257/12 436/149/17 437/258/16
f 437/258/16 436/149/13 438/171/18
f 437/258/16 438/171/503 439/259/20
f 439/259/22 438/171/18 440/186/504
f 439/259/22 440/186/504 441/260/24
f 441/260/24 440/186/25 442/175/246
f 441/260/505 442/175/26 443/261/29
f 443/261/506 442/175/28 444/183/31
f 443/261/29 444/183/31 445/262/33
f 437/258/16 439/259/22 446/263/41
f 437/258/16 446/263/34 447/264/35
f 429/254/1 431/255/5 449/265/37
f 429/254/1 449/265/36 448/266/38
f 439/259/20 441/260/24 452/267/40
f 439/259/20 452/267/39 446/263/34
f 431/255/5 433/256/8 450/268/43
f 431/255/5 450/268/43 449/265/507
f 441/260/24 443/261/29 453/269/508
f 441/260/24 453/269/46 452/267/39
f 433/256/8 435/257/12 451/270/48
f 433/256/8 451/270/48 450/268/50
f 443/261/29 445/262/33 454/271/51
f 443/261/29 454/271/509 453/269/45
f 435/257/12 437/258/16 447/264/54
f 435/257/12 447/264/510 451/270/48
f 456/160/58 455/164/56 464/272/57
f 456/160/55 464/272/57 465/273/63
f 457/274/62 456/160/58 465/273/60
f 457/274/114 465/273/63 466/275/511
f 458/152/65 457/274/62 466/275/511
f 458/152/70 466/275/66 467/276/71
f 459/149/69 458/152/70 467/276/71
f 459/149/72 467/276/68 468/277/74
f 460/166/512 459/149/69 468/277/74
f 460/166/513 468/277/74 469/278/435
f 461/162/514 460/166/75 469/278/435
f 461/162/514 469/278/435 470/161/515
f 462/279/85 461/162/79 470/161/515
f 462/279/88 470/161/515 471/156/91
f 463/155/87 462/279/88 471/156/86
f 463/155/87 471/156/91 472/157/92
f 474/254/203 473/167/202 475/168/255
f 474/254/203 475/168/516 476/255/307
f 476/255/517 475/168/254 477/280/518
f 476/255/307 477/280/224 478/256/309
f 478/256/327 477/280/296 479/181/235
f 478/256/310 479/181/235 480/257/325
f 480/257/325 479/181/235 481/281/292
f 480/257/325 481/281/314 482/258/315
f 482/258/315 481/281/292 483/282/251
f 482/258/315 483/282/519 484/259/338
f 484/259/333 483/282/251 485/186/286
f 484/259/317 485/186/260 486/283/318
f 486/283/318 485/186/520 487/284/521
f 486/283/318 487/284/319 488/261/320
f 488/261/320 487/284/232 489/177/239
f 488/261/320 489/177/239 490/262/321
f 486/283/318 488/261/320 498/269/322
f 486/283/318 498/269/322 497/267/340
f 478/256/309 480/257/325 494/270/326
f 478/256/327 494/270/328 493/268/342
f 488/261/320 490/262/321 499/271/330
f 488/261/320 499/271/330 498/269/322
f 480/257/311 482/258/315 495/264/335
f 480/257/312 495/264/331 494/270/326
f 482/258/315 484/259/338 496/263/334
f 482/258/315 496/263/334 495/264/335
f 474/254/203 476/255/307 492/265/373
f 474/254/203 492/265/522 491/266/217
f 484/259/317 486/283/339 497/267/340
f 484/259/338 497/267/323 496/263/334
f 476/255/307 478/256/309 493/268/342
f 476/255/307 493/268/329 492/265/373
f 502/274/111 501/160/108 509/159/523
f 502/274/111 509/159/523 510/153/408
f 503/285/112 502/274/111 510/153/347
f 503/285/112 510/153/347 511/276/350
f 504/149/115 503/285/346 511/276/524
f 504/149/525 511/276/524 512/277/351
f 505/166/116 504/149/115 512/277/526
f 505/166/116 512/277/526 513/278/353
f 506/162/120 505/166/117 513/278/353
f 506/162/120 513/278/353 514/286/356
f 507/158/121 506/162/120 514/286/527
f 507/158/357 514/286/356 515/287/528
f 508/155/122 507/158/121 515/287/359
f 508/155/122 515/287/528 516/288/529
f 501/160/108 500/164/104 517/163/269
f 501/160/530 517/163/269 509/159/531
f 518/258/467 519/149/294 520/171/237
f 518/258/467 520/171/237 521/259/484
f 521/259/484 520/171/237 522/186/291
f 521/259/484 522/186/532 523/260/471
f 523/260/471 522/186/532 524/175/253
f 523/260/471 524/175/253 525/261/473
f 525/261/473 524/175/533 526/183/2
f 525/261/473 526/183/534 527/289/1
f 529/254/321 528/167/239 530/168/289
f 529/254/321 530/168/248 531/255/475
f 531/255/475 530/168/290 532/280/257
f 531/255/475 532/280/256 533/256/477
f 533/256/489 532/280/476 534/290/295
f 533/256/477 534/290/295 535/257/493
f 535/257/481 534/290/295 519/149/535
f 535/257/480 519/149/293 518/258/467
f 518/258/467 521/259/484 537/263/364
f 518/258/467 537/263/364 536/264/485
f 535/257/493 518/258/467 536/264/363
f 535/257/480 536/264/485 544/270/378
f 521/259/484 523/260/471 538/291/366
f 521/259/468 538/291/366 537/263/486
f 529/254/321 531/255/475 542/265/375
f 529/254/321 542/265/375 541/266/330
f 523/260/471 525/261/473 539/269/367
f 523/260/471 539/269/367 538/291/366
f 531/255/475 533/256/477 543/268/376
f 531/255/475 543/268/376 542/265/536
f 525/261/473 527/289/1 540/292/537
f 525/261/473 540/292/38 539/269/492
f 533/256/489 535/257/480 544/270/538
f 533/256/477 544/270/378 543/268/377
f 549/158/110 548/162/539 554/286/540
f 549/158/110 554/286/541 555/287/411
f 550/155/56 549/158/110 555/287/411
f 550/155/56 555/287/411 556/288/57
f 552/160/123 551/164/122 557/272/361
f 552/160/542 557/272/438 558/273/444
f 553/274/127 552/160/542 558/273/453
f 553/274/497 558/273/498 559/275/452
f 545/285/94 553/274/127 559/275/452
f 545/285/95 559/275/454 560/276/500
f 546/149/102 545/285/94 560/276/543
f 546/149/102 560/276/383 561/277/382
f 547/166/103 546/149/102 561/277/544
f 547/166/501 561/277/382 562/278/391
f 548/162/495 547/166/502 562/278/390
f 548/162/495 562/278/390 554/286/405
f 576/254/33 575/167/31 577/168/176
f 576/254/33 577/168/176 578/293/178
f 578/293/178 577/168/176 579/179/181
f 578/293/178 579/179/545 580/294/182
f 580/294/182 579/179/545 581/181/184
f 580/294/546 581/181/184 582/295/214
f 582/295/186 581/181/184 583/149/547
f 582/295/548 583/149/549 584/296/188
f 584/296/188 583/149/550 585/171/189
f 584/296/188 585/171/193 586/297/222
f 586/297/192 585/171/193 587/186/551
f 586/297/195 587/186/552 588/298/196
f 588/298/196 587/186/194 589/175/197
f 588/298/196 589/175/201 590/299/199
f 590/299/199 589/175/197 591/177/202
f 590/299/199 591/177/202 592/262/203
f 577/168/553 575/167/31 603/167/93
f 577/168/179 603/167/93 604/168/93
f 586/297/222 588/298/196 612/267/207
f 586/297/222 612/267/207 611/263/371
f 578/293/178 580/294/183 608/268/368
f 578/293/178 608/268/209 607/265/554
f 588/298/196 590/299/199 613/269/372
f 588/298/196 613/269/218 612/267/213
f 580/294/183 582/295/548 609/300/369
f 580/294/182 609/300/369 608/268/368
f 590/299/199 592/262/203 614/292/217
f 590/299/199 614/292/217 613/269/372
f 582/295/214 584/296/188 610/264/221
f 582/295/186 610/264/221 609/300/215
f 584/296/188 586/297/195 611/263/208
f 584/296/188 611/263/208 610/264/221
f 576/254/33 578/293/178 607/265/210
f 576/254/33 607/265/210 606/266/51
f 594/188/296 593/176/255 615/176/93
f 594/188/296 615/176/93 616/188/93
f 605/187/295 602/174/256 617/174/93
f 605/187/295 617/174/93 618/187/93
f 572/173/18 571/172/258 619/172/93
f 572/173/18 619/172/93 620/173/93
f 587/186/552 585/171/193 621/171/93
f 587/186/552 621/171/93 622/186/93
f 599/185/232 598/169/286 623/169/93
f 599/185/232 623/169/93 624/185/93
f 568/178/234 567/167/2 625/167/93
f 568/178/3 625/167/93 626/178/93
f 579/179/181 577/168/179 604/168/93
f 579/179/555 604/168/93 627/179/93
